<mxfile host="app.diagrams.net" agent="Mozilla/5.0 (Windows NT 10.0; Win64; x64) AppleWebKit/537.36 (KHTML, like Gecko) Chrome/138.0.0.0 Safari/537.36" version="28.0.7">
  <diagram id="C5RBs43oDa-KdzZeNtuy" name="Page-1">
    <mxGraphModel dx="2228" dy="890" grid="0" gridSize="10" guides="1" tooltips="1" connect="1" arrows="1" fold="1" page="1" pageScale="1" pageWidth="827" pageHeight="1169" math="0" shadow="0">
      <root>
        <mxCell id="WIyWlLk6GJQsqaUBKTNV-0" />
        <mxCell id="WIyWlLk6GJQsqaUBKTNV-1" parent="WIyWlLk6GJQsqaUBKTNV-0" />
        <mxCell id="JMTRg18jXdbkVh8YAQ7i-0" value="&lt;font style=&quot;font-size: 18px;&quot;&gt;&lt;u&gt;&lt;b&gt;HD Machine INIT Flowchart&lt;/b&gt;&lt;/u&gt;&lt;/font&gt;&lt;div&gt;&lt;br&gt;&lt;/div&gt;" style="text;html=1;align=center;verticalAlign=middle;whiteSpace=wrap;rounded=0;" parent="WIyWlLk6GJQsqaUBKTNV-1" vertex="1">
          <mxGeometry x="269" y="20" width="290" height="30" as="geometry" />
        </mxCell>
        <mxCell id="JMTRg18jXdbkVh8YAQ7i-5" value="" style="edgeStyle=orthogonalEdgeStyle;rounded=0;orthogonalLoop=1;jettySize=auto;html=1;" parent="WIyWlLk6GJQsqaUBKTNV-1" source="JMTRg18jXdbkVh8YAQ7i-2" target="JMTRg18jXdbkVh8YAQ7i-4" edge="1">
          <mxGeometry relative="1" as="geometry" />
        </mxCell>
        <mxCell id="JMTRg18jXdbkVh8YAQ7i-2" value="Start" style="ellipse;whiteSpace=wrap;html=1;" parent="WIyWlLk6GJQsqaUBKTNV-1" vertex="1">
          <mxGeometry x="354" y="70" width="120" height="40" as="geometry" />
        </mxCell>
        <mxCell id="JMTRg18jXdbkVh8YAQ7i-7" value="" style="edgeStyle=orthogonalEdgeStyle;rounded=0;orthogonalLoop=1;jettySize=auto;html=1;" parent="WIyWlLk6GJQsqaUBKTNV-1" source="JMTRg18jXdbkVh8YAQ7i-4" target="JMTRg18jXdbkVh8YAQ7i-6" edge="1">
          <mxGeometry relative="1" as="geometry" />
        </mxCell>
        <mxCell id="JMTRg18jXdbkVh8YAQ7i-4" value="If&amp;nbsp;&lt;div&gt;Power Key pressed?&lt;/div&gt;" style="rhombus;whiteSpace=wrap;html=1;" parent="WIyWlLk6GJQsqaUBKTNV-1" vertex="1">
          <mxGeometry x="362" y="150" width="104" height="70" as="geometry" />
        </mxCell>
        <mxCell id="JMTRg18jXdbkVh8YAQ7i-9" value="" style="edgeStyle=orthogonalEdgeStyle;rounded=0;orthogonalLoop=1;jettySize=auto;html=1;" parent="WIyWlLk6GJQsqaUBKTNV-1" source="JMTRg18jXdbkVh8YAQ7i-6" target="JMTRg18jXdbkVh8YAQ7i-8" edge="1">
          <mxGeometry relative="1" as="geometry" />
        </mxCell>
        <mxCell id="JMTRg18jXdbkVh8YAQ7i-6" value="Checking Power Source" style="whiteSpace=wrap;html=1;" parent="WIyWlLk6GJQsqaUBKTNV-1" vertex="1">
          <mxGeometry x="357" y="250" width="114" height="40" as="geometry" />
        </mxCell>
        <mxCell id="JMTRg18jXdbkVh8YAQ7i-11" value="" style="edgeStyle=orthogonalEdgeStyle;rounded=0;orthogonalLoop=1;jettySize=auto;html=1;" parent="WIyWlLk6GJQsqaUBKTNV-1" source="JMTRg18jXdbkVh8YAQ7i-8" target="JMTRg18jXdbkVh8YAQ7i-10" edge="1">
          <mxGeometry relative="1" as="geometry" />
        </mxCell>
        <mxCell id="JMTRg18jXdbkVh8YAQ7i-14" value="" style="edgeStyle=orthogonalEdgeStyle;rounded=0;orthogonalLoop=1;jettySize=auto;html=1;" parent="WIyWlLk6GJQsqaUBKTNV-1" source="JMTRg18jXdbkVh8YAQ7i-8" target="JMTRg18jXdbkVh8YAQ7i-13" edge="1">
          <mxGeometry relative="1" as="geometry" />
        </mxCell>
        <mxCell id="JMTRg18jXdbkVh8YAQ7i-8" value="If mains&amp;nbsp;&lt;div&gt;present?&lt;/div&gt;" style="rhombus;whiteSpace=wrap;html=1;" parent="WIyWlLk6GJQsqaUBKTNV-1" vertex="1">
          <mxGeometry x="362" y="320" width="104" height="70" as="geometry" />
        </mxCell>
        <mxCell id="JMTRg18jXdbkVh8YAQ7i-12" style="edgeStyle=orthogonalEdgeStyle;rounded=0;orthogonalLoop=1;jettySize=auto;html=1;exitX=0.5;exitY=0;exitDx=0;exitDy=0;entryX=1;entryY=0.5;entryDx=0;entryDy=0;" parent="WIyWlLk6GJQsqaUBKTNV-1" source="JMTRg18jXdbkVh8YAQ7i-10" target="JMTRg18jXdbkVh8YAQ7i-4" edge="1">
          <mxGeometry relative="1" as="geometry">
            <mxPoint x="470" y="180" as="targetPoint" />
            <Array as="points">
              <mxPoint x="603" y="185" />
            </Array>
          </mxGeometry>
        </mxCell>
        <mxCell id="JMTRg18jXdbkVh8YAQ7i-10" value="Trigger Alarm&lt;div&gt;[Stop Init]&lt;/div&gt;" style="whiteSpace=wrap;html=1;" parent="WIyWlLk6GJQsqaUBKTNV-1" vertex="1">
          <mxGeometry x="559" y="332.5" width="88" height="45" as="geometry" />
        </mxCell>
        <mxCell id="JMTRg18jXdbkVh8YAQ7i-16" value="" style="edgeStyle=orthogonalEdgeStyle;rounded=0;orthogonalLoop=1;jettySize=auto;html=1;exitX=0.517;exitY=0.785;exitDx=0;exitDy=0;exitPerimeter=0;entryX=0.5;entryY=0;entryDx=0;entryDy=0;" parent="WIyWlLk6GJQsqaUBKTNV-1" source="JMTRg18jXdbkVh8YAQ7i-13" target="JMTRg18jXdbkVh8YAQ7i-15" edge="1">
          <mxGeometry relative="1" as="geometry">
            <Array as="points">
              <mxPoint x="266" y="406" />
              <mxPoint x="265" y="406" />
            </Array>
          </mxGeometry>
        </mxCell>
        <mxCell id="JMTRg18jXdbkVh8YAQ7i-13" value="Akas Logo Display" style="shape=document;whiteSpace=wrap;html=1;boundedLbl=1;" parent="WIyWlLk6GJQsqaUBKTNV-1" vertex="1">
          <mxGeometry x="210" y="327.5" width="90" height="55" as="geometry" />
        </mxCell>
        <mxCell id="JMTRg18jXdbkVh8YAQ7i-18" value="" style="edgeStyle=orthogonalEdgeStyle;rounded=0;orthogonalLoop=1;jettySize=auto;html=1;" parent="WIyWlLk6GJQsqaUBKTNV-1" source="JMTRg18jXdbkVh8YAQ7i-15" target="JMTRg18jXdbkVh8YAQ7i-17" edge="1">
          <mxGeometry relative="1" as="geometry" />
        </mxCell>
        <mxCell id="JMTRg18jXdbkVh8YAQ7i-15" value="Loading Screen" style="shape=process;whiteSpace=wrap;html=1;backgroundOutline=1;" parent="WIyWlLk6GJQsqaUBKTNV-1" vertex="1">
          <mxGeometry x="210" y="440" width="110" height="45" as="geometry" />
        </mxCell>
        <mxCell id="JMTRg18jXdbkVh8YAQ7i-24" value="" style="edgeStyle=orthogonalEdgeStyle;rounded=0;orthogonalLoop=1;jettySize=auto;html=1;" parent="WIyWlLk6GJQsqaUBKTNV-1" source="JMTRg18jXdbkVh8YAQ7i-17" target="JMTRg18jXdbkVh8YAQ7i-23" edge="1">
          <mxGeometry relative="1" as="geometry" />
        </mxCell>
        <mxCell id="JMTRg18jXdbkVh8YAQ7i-32" value="" style="edgeStyle=orthogonalEdgeStyle;rounded=0;orthogonalLoop=1;jettySize=auto;html=1;" parent="WIyWlLk6GJQsqaUBKTNV-1" source="JMTRg18jXdbkVh8YAQ7i-17" target="JMTRg18jXdbkVh8YAQ7i-31" edge="1">
          <mxGeometry relative="1" as="geometry" />
        </mxCell>
        <mxCell id="JMTRg18jXdbkVh8YAQ7i-17" value="If 100% reached?" style="rhombus;whiteSpace=wrap;html=1;" parent="WIyWlLk6GJQsqaUBKTNV-1" vertex="1">
          <mxGeometry x="225" y="557.5" width="80" height="80" as="geometry" />
        </mxCell>
        <mxCell id="JMTRg18jXdbkVh8YAQ7i-26" value="" style="edgeStyle=orthogonalEdgeStyle;rounded=0;orthogonalLoop=1;jettySize=auto;html=1;" parent="WIyWlLk6GJQsqaUBKTNV-1" source="JMTRg18jXdbkVh8YAQ7i-23" target="JMTRg18jXdbkVh8YAQ7i-25" edge="1">
          <mxGeometry relative="1" as="geometry" />
        </mxCell>
        <mxCell id="JMTRg18jXdbkVh8YAQ7i-23" value="Run Self Test" style="shape=parallelogram;perimeter=parallelogramPerimeter;whiteSpace=wrap;html=1;fixedSize=1;" parent="WIyWlLk6GJQsqaUBKTNV-1" vertex="1">
          <mxGeometry x="210" y="700" width="110" height="40" as="geometry" />
        </mxCell>
        <mxCell id="JMTRg18jXdbkVh8YAQ7i-28" value="" style="edgeStyle=orthogonalEdgeStyle;rounded=0;orthogonalLoop=1;jettySize=auto;html=1;" parent="WIyWlLk6GJQsqaUBKTNV-1" source="JMTRg18jXdbkVh8YAQ7i-25" target="JMTRg18jXdbkVh8YAQ7i-27" edge="1">
          <mxGeometry relative="1" as="geometry" />
        </mxCell>
        <mxCell id="JMTRg18jXdbkVh8YAQ7i-30" style="edgeStyle=orthogonalEdgeStyle;rounded=0;orthogonalLoop=1;jettySize=auto;html=1;exitX=0;exitY=0.5;exitDx=0;exitDy=0;entryX=0;entryY=0.5;entryDx=0;entryDy=0;" parent="WIyWlLk6GJQsqaUBKTNV-1" source="JMTRg18jXdbkVh8YAQ7i-25" target="JMTRg18jXdbkVh8YAQ7i-15" edge="1">
          <mxGeometry relative="1" as="geometry" />
        </mxCell>
        <mxCell id="JMTRg18jXdbkVh8YAQ7i-25" value="If test fails?" style="rhombus;whiteSpace=wrap;html=1;" parent="WIyWlLk6GJQsqaUBKTNV-1" vertex="1">
          <mxGeometry x="225" y="800" width="80" height="80" as="geometry" />
        </mxCell>
        <mxCell id="JMTRg18jXdbkVh8YAQ7i-29" style="edgeStyle=orthogonalEdgeStyle;rounded=0;orthogonalLoop=1;jettySize=auto;html=1;exitX=0;exitY=0.5;exitDx=0;exitDy=0;entryX=0;entryY=0.5;entryDx=0;entryDy=0;" parent="WIyWlLk6GJQsqaUBKTNV-1" source="JMTRg18jXdbkVh8YAQ7i-27" target="JMTRg18jXdbkVh8YAQ7i-4" edge="1">
          <mxGeometry relative="1" as="geometry">
            <Array as="points">
              <mxPoint x="90" y="990" />
              <mxPoint x="90" y="185" />
            </Array>
          </mxGeometry>
        </mxCell>
        <mxCell id="JMTRg18jXdbkVh8YAQ7i-27" value="Display Error" style="whiteSpace=wrap;html=1;" parent="WIyWlLk6GJQsqaUBKTNV-1" vertex="1">
          <mxGeometry x="220" y="970" width="90" height="40" as="geometry" />
        </mxCell>
        <mxCell id="JMTRg18jXdbkVh8YAQ7i-36" style="edgeStyle=orthogonalEdgeStyle;rounded=0;orthogonalLoop=1;jettySize=auto;html=1;exitX=0.5;exitY=1;exitDx=0;exitDy=0;entryX=0.5;entryY=0;entryDx=0;entryDy=0;" parent="WIyWlLk6GJQsqaUBKTNV-1" source="JMTRg18jXdbkVh8YAQ7i-31" target="JMTRg18jXdbkVh8YAQ7i-35" edge="1">
          <mxGeometry relative="1" as="geometry" />
        </mxCell>
        <mxCell id="JMTRg18jXdbkVh8YAQ7i-31" value="Main Screen" style="whiteSpace=wrap;html=1;" parent="WIyWlLk6GJQsqaUBKTNV-1" vertex="1">
          <mxGeometry x="480" y="567.5" width="120" height="60" as="geometry" />
        </mxCell>
        <mxCell id="JMTRg18jXdbkVh8YAQ7i-35" value="Stop" style="ellipse;whiteSpace=wrap;html=1;" parent="WIyWlLk6GJQsqaUBKTNV-1" vertex="1">
          <mxGeometry x="495" y="760" width="90" height="40" as="geometry" />
        </mxCell>
        <mxCell id="OgdP0z9LtiCQJymHW_8O-0" value="yes" style="text;html=1;align=center;verticalAlign=middle;resizable=0;points=[];autosize=1;strokeColor=none;fillColor=none;" vertex="1" parent="WIyWlLk6GJQsqaUBKTNV-1">
          <mxGeometry x="414" y="220" width="37" height="26" as="geometry" />
        </mxCell>
        <mxCell id="OgdP0z9LtiCQJymHW_8O-1" value="No" style="text;html=1;align=center;verticalAlign=middle;resizable=0;points=[];autosize=1;strokeColor=none;fillColor=none;" vertex="1" parent="WIyWlLk6GJQsqaUBKTNV-1">
          <mxGeometry x="466" y="327.5" width="33" height="26" as="geometry" />
        </mxCell>
        <mxCell id="OgdP0z9LtiCQJymHW_8O-2" value="yes" style="text;html=1;align=center;verticalAlign=middle;resizable=0;points=[];autosize=1;strokeColor=none;fillColor=none;" vertex="1" parent="WIyWlLk6GJQsqaUBKTNV-1">
          <mxGeometry x="333" y="325" width="37" height="26" as="geometry" />
        </mxCell>
        <mxCell id="OgdP0z9LtiCQJymHW_8O-3" value="yes" style="text;html=1;align=center;verticalAlign=middle;resizable=0;points=[];autosize=1;strokeColor=none;fillColor=none;" vertex="1" parent="WIyWlLk6GJQsqaUBKTNV-1">
          <mxGeometry x="303" y="572" width="37" height="26" as="geometry" />
        </mxCell>
        <mxCell id="OgdP0z9LtiCQJymHW_8O-4" value="yes" style="text;html=1;align=center;verticalAlign=middle;resizable=0;points=[];autosize=1;strokeColor=none;fillColor=none;" vertex="1" parent="WIyWlLk6GJQsqaUBKTNV-1">
          <mxGeometry x="261" y="873" width="37" height="26" as="geometry" />
        </mxCell>
        <mxCell id="OgdP0z9LtiCQJymHW_8O-5" value="No" style="text;html=1;align=center;verticalAlign=middle;resizable=0;points=[];autosize=1;strokeColor=none;fillColor=none;" vertex="1" parent="WIyWlLk6GJQsqaUBKTNV-1">
          <mxGeometry x="265" y="633" width="33" height="26" as="geometry" />
        </mxCell>
        <mxCell id="OgdP0z9LtiCQJymHW_8O-6" value="No" style="text;html=1;align=center;verticalAlign=middle;resizable=0;points=[];autosize=1;strokeColor=none;fillColor=none;" vertex="1" parent="WIyWlLk6GJQsqaUBKTNV-1">
          <mxGeometry x="192" y="817" width="33" height="26" as="geometry" />
        </mxCell>
      </root>
    </mxGraphModel>
  </diagram>
</mxfile>
